<?xml version="1.0" encoding="UTF-8" standalone="no"?>
<!-- Created with Inkscape (http://www.inkscape.org/) -->

<svg
   width="130.84079mm"
   height="130.8877mm"
   viewBox="0 0 130.84079 130.8877"
   version="1.1"
   id="svg1"
   xml:space="preserve"
   xmlns="http://www.w3.org/2000/svg"
   xmlns:svg="http://www.w3.org/2000/svg"><defs
     id="defs1" /><g
     id="layer1"
     transform="translate(-433.02618,-890.59393)"><path
       style="fill:#000000"
       d="m 487.31039,1021.236 c -1.86704,-0.3233 -8.12855,-2.0078 -10.45104,-2.8115 -13.75559,-4.7602 -24.92415,-13.4548 -33.11073,-25.77627 -10.93219,-16.45384 -13.72349,-38.21303 -7.36433,-57.40748 7.20711,-21.75389 26.05908,-38.70088 48.14798,-43.28267 5.69579,-1.18144 7.65729,-1.37223 14.02291,-1.36391 7.00995,0.009 10.1147,0.38363 16.42355,1.98087 16.19983,4.10139 30.50805,14.79384 39.48576,29.5075 4.70531,7.71159 7.74246,16.51846 9.07507,26.31514 0.19242,1.4146 0.3354,4.88493 0.32703,7.9375 -0.0342,12.48479 -3.20855,24.08861 -9.39104,34.3293 -8.44367,13.98612 -23.06039,25.20302 -38.64468,29.65592 -1.55795,0.4451 -3.25459,0.8885 -3.77031,0.9853 l -0.93767,0.1759 v -23.5774 -23.57736 h 6.44655 6.44655 l 0.71517,-4.56406 c 0.39335,-2.51024 1.04104,-6.64766 1.43932,-9.19427 l 0.72414,-4.63021 -9.73795,-0.0694 -9.73795,-0.0694 v -6.82036 c 0,-7.70268 0.20402,-9.04942 1.71787,-11.3402 1.1569,-1.75063 2.35113,-2.64978 4.42559,-3.33209 1.46943,-0.48331 2.49619,-0.56016 8.87165,-0.66402 l 7.20989,-0.11739 v -8.03696 -8.03697 l -0.59531,-0.13131 c -4.69014,-1.03453 -17.44303,-1.40735 -21.10052,-0.61686 -10.90237,2.35634 -17.38423,9.51465 -18.75669,20.71413 -0.1605,1.30969 -0.29215,5.98289 -0.29256,10.38489 l -7.5e-4,8.00365 h -7.40833 -7.40833 v 9.26042 9.26041 h 7.40833 7.40833 v 23.54792 c 0,22.26394 -0.0252,23.54594 -0.46302,23.51184 -0.25466,-0.02 -0.76068,-0.088 -1.12448,-0.1506 z"
       id="path3" /></g></svg>
