<?xml version="1.0" encoding="UTF-8" standalone="no"?>
<!-- Created with Inkscape (http://www.inkscape.org/) -->

<svg
   width="132.12674mm"
   height="132.10506mm"
   viewBox="0 0 132.12674 132.10506"
   version="1.1"
   id="svg1"
   xml:space="preserve"
   xmlns="http://www.w3.org/2000/svg"
   xmlns:svg="http://www.w3.org/2000/svg"><defs
     id="defs1" /><g
     id="layer1"
     transform="translate(-261.9588,-881.26036)"><path
       style="fill:#000000"
       d="m 321.73585,1013.0988 c -19.30418,-1.8534 -36.83732,-12.0878 -47.98516,-28.00999 -6.09308,-8.70258 -9.93593,-18.6457 -11.45304,-29.63395 -0.4518,-3.27242 -0.4518,-13.13176 0,-16.40417 2.71058,-19.63248 13.02006,-36.17791 29.26933,-46.97361 8.33946,-5.54057 17.69241,-9.01702 28.18158,-10.47496 3.21367,-0.44669 13.13143,-0.45817 16.27188,-0.0188 12.68994,1.77523 23.52432,6.3372 33.05483,13.91821 17.37445,13.82046 26.76705,35.68025 24.73728,57.57213 -2.51208,27.09381 -20.90192,49.64924 -46.90475,57.52954 -7.70918,2.3363 -17.11661,3.269 -25.17195,2.4956 z m 28.84241,-26.07674 c 11.05658,-2.524 17.0385,-9.71569 18.14264,-21.81179 0.17862,-1.9568 0.2404,-9.32497 0.16973,-20.24062 -0.10698,-16.52231 -0.13302,-17.26263 -0.69675,-19.80958 -1.0209,-4.61248 -2.97298,-8.49359 -5.71511,-11.36275 -2.89014,-3.02402 -6.97179,-5.18934 -11.90051,-6.31323 -2.26023,-0.5154 -3.37053,-0.54971 -20.90782,-0.64601 -19.27455,-0.10584 -21.7514,-0.009 -25.71591,1.00491 -4.03609,1.03225 -7.76307,3.13233 -10.47271,5.90115 -2.78233,2.84311 -4.74683,6.75504 -5.79929,11.54822 -0.6058,2.75896 -0.61001,2.91045 -0.61001,21.96041 0,19.04996 0.004,19.20146 0.61001,21.96042 1.05246,4.79318 3.01696,8.70511 5.79929,11.54821 3.54793,3.62543 8.48276,5.89984 14.49278,6.67958 1.01865,0.13216 10.48412,0.21457 21.03438,0.18313 18.30445,-0.0545 19.29152,-0.0821 21.56928,-0.60205 z m -41.28074,-7.13282 c -2.25757,-0.30015 -4.94881,-1.02624 -6.48229,-1.74889 -2.39488,-1.12858 -4.9046,-3.68314 -6.17108,-6.28133 -1.9643,-4.02977 -1.89871,-3.17981 -1.89871,-24.60625 0,-17.55728 0.0398,-19.32798 0.4701,-20.90208 1.49139,-5.45598 4.71416,-9.13048 9.3978,-10.71507 3.35628,-1.13551 5.58282,-1.23607 24.9248,-1.12575 20.18373,0.11513 19.87018,0.0891 23.74479,1.97404 3.46803,1.68718 6.14065,5.24935 7.40282,9.86678 0.43028,1.5741 0.4701,3.3448 0.4701,20.90208 0,17.48343 -0.0412,19.3346 -0.46572,20.90208 -1.22447,4.52171 -3.98857,8.20364 -7.4072,9.86679 -3.9079,1.90117 -3.46079,1.86595 -24.40624,1.92245 -10.33198,0.0279 -19.14261,0.003 -19.57917,-0.0548 z m 25.13542,-12.1067 c 6.87624,-2.33601 11.71953,-7.18007 14.04522,-14.04748 1.02367,-3.02275 1.2041,-7.98198 0.41113,-11.30015 -2.36627,-9.9016 -10.78167,-16.6046 -20.8552,-16.61153 -5.96634,-0.004 -11.14913,2.11252 -15.27473,6.23811 -4.12559,4.12559 -6.24221,9.30839 -6.23811,15.27473 0.007,9.94684 6.60619,18.35176 16.35135,20.82507 3.11266,0.78999 8.65449,0.60842 11.56034,-0.37875 z m -10.71563,-7.37358 c -2.36354,-0.80876 -4.00881,-1.8269 -5.65471,-3.49931 -2.56157,-2.60282 -3.87029,-5.86825 -3.87029,-9.65688 0,-3.85156 1.33051,-7.109 3.98992,-9.76841 2.65941,-2.65941 5.91685,-3.98992 9.76841,-3.98992 3.85157,0 7.10901,1.33051 9.76842,3.98992 2.65941,2.65941 3.98992,5.91685 3.98992,9.76841 0,1.31511 -0.17919,2.89527 -0.42211,3.72229 -1.36604,4.65069 -4.96325,8.2479 -9.61393,9.61393 -2.15578,0.63321 -5.82141,0.55026 -7.95563,-0.18003 z m 28.04852,-30.94942 c 1.50239,-1.02251 1.98169,-1.90242 1.98169,-3.63802 0,-2.37839 -1.41347,-3.94072 -3.77009,-4.16716 -4.43863,-0.4265 -6.43863,5.30161 -2.72492,7.80429 1.21936,0.82172 3.30667,0.82213 4.51332,8.9e-4 z"
       id="path2" /></g></svg>
