<?xml version="1.0" encoding="UTF-8" standalone="no"?>
<!-- Created with Inkscape (http://www.inkscape.org/) -->

<svg
   width="133.41434mm"
   height="133.44231mm"
   viewBox="0 0 133.41434 133.44231"
   version="1.1"
   id="svg1"
   xml:space="preserve"
   xmlns="http://www.w3.org/2000/svg"
   xmlns:svg="http://www.w3.org/2000/svg"><defs
     id="defs1" /><g
     id="layer1"
     transform="translate(-643.38249,-891.72081)"><path
       style="fill:#000000"
       d="m 704.00796,1024.988 c -13.55699,-1.3979 -25.99095,-6.5269 -36.20575,-14.935 -12.77527,-10.51564 -21.27182,-25.48834 -23.68536,-41.73858 -2.64561,-17.81277 1.90439,-35.56264 12.88576,-50.26826 2.39039,-3.20108 9.50589,-10.31658 12.70696,-12.70697 18.25056,-13.62853 41.18969,-17.24433 62.60487,-9.86817 1.50664,0.51894 4.61774,1.86429 6.91357,2.98967 7.56568,3.70857 11.93162,6.84015 18.00854,12.91706 5.96989,5.9699 9.39566,10.72548 12.90975,17.92105 3.09227,6.33185 5.14746,13.06212 6.16104,20.17597 0.64723,4.54259 0.65364,13.531 0.0129,18.00135 -1.63018,11.3725 -6.08461,22.10829 -13.0342,31.4142 -2.4042,3.21938 -9.51288,10.32808 -12.73226,12.73228 -9.18745,6.8611 -19.51729,11.2136 -30.5759,12.8833 -3.99345,0.603 -12.35102,0.8553 -15.96987,0.4821 z m -13.23879,-56.79443 -0.0666,-24.45837 h -8.08756 -8.08757 l -0.0666,24.45837 -0.0666,24.45836 h 8.22069 8.22068 z m 25.42744,9.00068 0.0732,-15.45769 0.77177,-1.3933 c 1.04438,-1.88546 2.58882,-3.37986 4.31557,-4.17574 1.14513,-0.52782 1.86006,-0.66449 3.54038,-0.67684 1.84428,-0.0135 2.29602,0.082 3.64124,0.76992 1.88149,0.96218 3.02754,2.38959 3.82939,4.7695 0.5807,1.72356 0.59085,1.97583 0.67125,16.68593 l 0.0816,14.9359 h 8.07562 8.07562 v -15.88007 c 0,-17.34094 -0.0663,-18.32137 -1.51625,-22.41875 -2.82033,-7.96991 -9.52015,-12.2358 -18.3831,-11.70483 -4.82338,0.28896 -8.89406,2.29512 -11.75406,5.79275 l -1.34907,1.64985 -0.13045,-3.17784 -0.13044,-3.17784 -8.15279,-0.0689 -8.15279,-0.0689 v 24.52731 24.5273 h 8.21009 8.21009 z m -31.06465,-40.46666 c 4.02002,-0.94621 6.50939,-3.92377 6.57386,-7.86307 0.044,-2.68625 -0.612,-4.34654 -2.43911,-6.17366 -1.26126,-1.26125 -1.76651,-1.56897 -3.38167,-2.05956 -4.85753,-1.47543 -9.79309,0.42967 -11.61169,4.48205 -0.64745,1.44272 -0.70866,1.82825 -0.61138,3.85119 0.0895,1.86195 0.23794,2.48627 0.86416,3.63561 1.94704,3.57353 6.09723,5.18864 10.60583,4.12744 z"
       id="path4" /></g></svg>
